<svg width="321" height="125" viewBox="0 0 321 125" fill="none" xmlns="http://www.w3.org/2000/svg">
<path d="M57.9414 124.465C38.4102 124.465 23.9896 119.387 14.6797 109.23C5.4349 99.0742 0.8125 83.2865 0.8125 61.8672C0.8125 20.6562 20.1484 0.0507812 58.8203 0.0507812C64.0938 0.0507812 69.6276 0.571615 75.4219 1.61328C81.2812 2.65495 86.1641 4.11979 90.0703 6.00781C93.9766 7.83073 95.9297 9.88151 95.9297 12.1602C95.9297 13.7878 95.2786 15.9362 93.9766 18.6055C92.6745 21.2096 91.1445 23.5208 89.3867 25.5391C87.6289 27.5573 86.0664 28.5664 84.6992 28.5664C84.3086 28.5664 83.3646 28.2409 81.8672 27.5898C78.612 26.2878 75.194 25.2135 71.6133 24.3672C68.0326 23.4557 63.6055 23 58.332 23C48.1107 23 40.526 26.2552 35.5781 32.7656C30.6953 39.2109 28.2539 48.9766 28.2539 62.0625C28.2539 75.1484 30.7279 85.0117 35.6758 91.6523C40.6237 98.293 48.0456 101.613 57.9414 101.613C62.9544 101.613 67.4792 101.19 71.5156 100.344V78.3711H56.1836C54.3607 78.3711 53.026 77.6875 52.1797 76.3203C51.3984 74.9531 51.0078 72.7396 51.0078 69.6797V64.1133C51.0078 61.1185 51.3984 58.9375 52.1797 57.5703C53.026 56.2031 54.3607 55.5195 56.1836 55.5195H91.4375C93.9115 55.5195 95.7018 56.0729 96.8086 57.1797C97.9154 58.2214 98.4688 59.9466 98.4688 62.3555V110.695C98.4688 115.904 94.1068 119.517 85.3828 121.535C76.6589 123.488 67.5117 124.465 57.9414 124.465ZM134.797 123.293C127.896 123.293 124.445 121.47 124.445 117.824V6.69141C124.445 4.80339 125.259 3.40365 126.887 2.49219C128.579 1.51562 131.216 1.02734 134.797 1.02734H140.949C144.53 1.02734 147.134 1.51562 148.762 2.49219C150.454 3.40365 151.301 4.80339 151.301 6.69141V49.5625H198.176V6.69141C198.176 4.80339 199.022 3.40365 200.715 2.49219C202.408 1.51562 205.044 1.02734 208.625 1.02734H214.68C221.646 1.02734 225.129 2.91536 225.129 6.69141V117.824C225.129 121.47 221.646 123.293 214.68 123.293H208.625C201.659 123.293 198.176 121.47 198.176 117.824V72.5117H151.301V117.824C151.301 121.47 147.85 123.293 140.949 123.293H134.797ZM281.77 124.465C273.566 124.465 266.34 123.651 260.09 122.023C253.905 120.331 249.152 118.28 245.832 115.871C242.577 113.462 240.949 111.184 240.949 109.035C240.949 107.342 241.568 105.259 242.805 102.785C244.107 100.311 245.637 98.1953 247.395 96.4375C249.152 94.6146 250.617 93.7031 251.789 93.7031C252.505 93.7031 254.035 94.3216 256.379 95.5586C259.895 97.3815 263.215 98.8464 266.34 99.9531C269.53 101.06 273.176 101.613 277.277 101.613C281.835 101.613 285.676 100.734 288.801 98.9766C291.991 97.1536 293.586 93.9961 293.586 89.5039C293.586 86.8997 292.772 84.6536 291.145 82.7656C289.517 80.8776 287.434 79.2826 284.895 77.9805C282.355 76.6784 278.905 75.1484 274.543 73.3906L266.828 70.0703C262.141 67.7917 258.104 65.2852 254.719 62.5508C251.398 59.8164 248.664 56.2031 246.516 51.7109C244.432 47.2188 243.391 41.7174 243.391 35.207C243.391 27.2643 245.344 20.6562 249.25 15.3828C253.156 10.1094 258.234 6.23568 264.484 3.76172C270.734 1.28776 277.44 0.0507812 284.602 0.0507812C290.461 0.0507812 295.767 0.669271 300.52 1.90625C305.272 3.07812 308.983 4.60807 311.652 6.49609C314.387 8.38411 315.754 10.2721 315.754 12.1602C315.754 13.7227 315.233 15.7409 314.191 18.2148C313.215 20.6237 311.978 22.7396 310.48 24.5625C308.983 26.3854 307.583 27.2969 306.281 27.2969C305.695 27.2969 304.654 26.9714 303.156 26.3203C300.747 25.3438 298.306 24.5625 295.832 23.9766C293.423 23.3255 290.461 23 286.945 23C280.891 23 276.691 23.9766 274.348 25.9297C272.004 27.8177 270.832 30.0638 270.832 32.668C270.832 35.6628 271.613 38.1693 273.176 40.1875C274.803 42.2057 276.822 43.8659 279.23 45.168C281.704 46.4701 285.122 47.9674 289.484 49.6602C296.06 52.4596 301.431 55.1289 305.598 57.668C309.764 60.1419 313.345 63.7227 316.34 68.4102C319.4 73.0977 320.93 79.0872 320.93 86.3789C320.93 95.2982 319.042 102.622 315.266 108.352C311.555 114.016 306.737 118.117 300.812 120.656C294.953 123.195 288.605 124.465 281.77 124.465Z" fill="white"/>
</svg>
